<!-- Generated by IcoMoon.io -->
<svg version="1.1" xmlns="http://www.w3.org/2000/svg" width="1024" height="1024" viewBox="0 0 1024 1024">
<title></title>
<g id="icomoon-ignore">
</g>
<path d="M495.582 853.218c10.436 4.314 22.153 4.314 32.585 0 5.171-2.078 9.89-5.154 13.879-9.050l301.696-301.7c8.004-8 12.497-18.854 12.497-30.17s-4.493-22.165-12.497-30.17c-8-8-18.85-12.497-30.17-12.497-11.315 0-22.165 4.497-30.17 12.497l-228.988 228.992 0.303-500.52c0.021-5.632-1.071-11.214-3.217-16.422-2.142-5.208-5.299-9.94-9.28-13.923-3.985-3.983-8.717-7.138-13.922-9.283-5.21-2.145-10.79-3.237-16.422-3.214-5.632-0.023-11.217 1.069-16.422 3.214-5.21 2.145-9.941 5.3-13.922 9.283-3.985 3.983-7.138 8.715-9.284 13.923s-3.238 10.79-3.213 16.422l0.299 500.52-228.987-228.992c-8.002-8-18.854-12.497-30.17-12.497s-22.168 4.497-30.17 12.497c-8.001 8.004-12.497 18.854-12.497 30.17s4.495 22.17 12.497 30.17l301.701 301.7c3.989 3.895 8.704 6.972 13.875 9.050z"></path>
</svg>
