<!-- Generated by IcoMoon.io -->
<svg version="1.1" xmlns="http://www.w3.org/2000/svg" width="1024" height="1024" viewBox="0 0 1024 1024">
<title></title>
<g id="icomoon-ignore">
</g>
<path d="M528.166 171.030c-10.432-4.31-22.148-4.31-32.58 0-5.175 2.081-9.89 5.156-13.879 9.051l-301.699 301.698c-8.002 8.004-12.497 18.854-12.497 30.17s4.495 22.17 12.497 30.17c8.001 8.004 18.854 12.497 30.17 12.497s22.168-4.493 30.17-12.497l228.99-228.988-0.303 500.518c-0.021 5.632 1.071 11.213 3.213 16.422 2.146 5.21 5.299 9.941 9.284 13.922 3.981 3.985 8.713 7.138 13.922 9.284 5.21 2.142 10.79 3.234 16.422 3.213 5.632 0.021 11.213-1.071 16.422-3.213 5.21-2.146 9.941-5.299 13.922-9.284 3.985-3.981 7.138-8.713 9.284-13.922 2.142-5.21 3.234-10.79 3.213-16.422l-0.303-500.518 228.992 228.988c8 8.004 18.854 12.497 30.17 12.497s22.165-4.493 30.17-12.497c8-8 12.497-18.854 12.497-30.17s-4.497-22.165-12.497-30.17l-301.7-301.698c-3.989-3.895-8.704-6.97-13.879-9.051z"></path>
</svg>
