<!-- Generated by IcoMoon.io -->
<svg version="1.1" xmlns="http://www.w3.org/2000/svg" width="1024" height="1024" viewBox="0 0 1024 1024">
<title></title>
<g id="icomoon-ignore">
</g>
<path d="M810.667 85.333h-597.333c-33.948 0-66.505 13.486-90.51 37.49s-37.49 56.562-37.49 90.51v49.92c-0.006 17.619 3.625 35.049 10.667 51.2v2.56c6.028 13.695 14.566 26.14 25.173 36.693l262.827 261.12v281.173c-0.015 7.249 1.819 14.387 5.328 20.732s8.577 11.691 14.726 15.535c6.79 4.207 14.625 6.426 22.613 6.4 6.677-0.038 13.257-1.647 19.2-4.693l170.667-85.333c7.036-3.546 12.954-8.969 17.097-15.671s6.345-14.421 6.37-22.302v-195.84l261.12-261.12c10.607-10.553 19.145-22.999 25.173-36.693v-2.56c7.629-16.024 11.844-33.46 12.373-51.2v-49.92c0-33.948-13.487-66.505-37.491-90.51s-56.563-37.49-90.509-37.49zM567.040 567.040c-3.955 3.985-7.083 8.717-9.207 13.914-2.121 5.197-3.2 10.765-3.166 16.38v186.88l-85.333 42.667v-229.547c0.034-5.615-1.045-11.183-3.166-16.38-2.125-5.197-5.252-9.929-9.207-13.914l-226.133-225.707h562.347l-226.133 225.707zM853.333 256h-682.667v-42.667c0-11.316 4.495-22.168 12.497-30.17s18.854-12.497 30.17-12.497h597.333c11.315 0 22.17 4.495 30.17 12.497s12.497 18.854 12.497 30.17v42.667z"></path>
</svg>
