<!-- Generated by IcoMoon.io -->
<svg version="1.1" xmlns="http://www.w3.org/2000/svg" width="1024" height="1024" viewBox="0 0 1024 1024">
<title></title>
<g id="icomoon-ignore">
</g>
<path d="M384 426.667h42.667c11.315 0 22.17-4.495 30.17-12.497s12.497-18.854 12.497-30.17c0-11.316-4.497-22.168-12.497-30.17s-18.854-12.497-30.17-12.497h-42.667c-11.316 0-22.168 4.495-30.17 12.497s-12.497 18.854-12.497 30.17c0 11.316 4.495 22.168 12.497 30.17s18.854 12.497 30.17 12.497zM384 512c-11.316 0-22.168 4.497-30.17 12.497s-12.497 18.854-12.497 30.17c0 11.315 4.495 22.17 12.497 30.17s18.854 12.497 30.17 12.497h256c11.315 0 22.17-4.497 30.17-12.497s12.497-18.854 12.497-30.17c0-11.315-4.497-22.17-12.497-30.17s-18.854-12.497-30.17-12.497h-256zM853.333 381.44c-0.444-3.92-1.301-7.781-2.56-11.52v-3.84c-2.052-4.387-4.787-8.419-8.107-11.947l-256-256c-3.529-3.319-7.561-6.055-11.947-8.107-1.271-0.181-2.564-0.181-3.84 0-4.335-2.486-9.122-4.081-14.080-4.693h-258.133c-33.948 0-66.505 13.486-90.51 37.49s-37.49 56.562-37.49 90.51v597.333c0 33.946 13.486 66.505 37.49 90.509s56.562 37.491 90.51 37.491h426.667c33.946 0 66.505-13.487 90.509-37.491s37.491-56.563 37.491-90.509v-426.667c0 0 0 0 0-2.56zM597.333 230.827l110.507 110.507h-67.84c-11.315 0-22.17-4.495-30.17-12.497s-12.497-18.854-12.497-30.17v-67.84zM768 810.667c0 11.315-4.497 22.17-12.497 30.17s-18.854 12.497-30.17 12.497h-426.667c-11.316 0-22.168-4.497-30.17-12.497s-12.497-18.854-12.497-30.17v-597.333c0-11.316 4.495-22.168 12.497-30.17s18.854-12.497 30.17-12.497h213.333v128c0 33.948 13.487 66.505 37.491 90.51s56.563 37.49 90.509 37.49h128v384zM640 682.667h-256c-11.316 0-22.168 4.497-30.17 12.497s-12.497 18.854-12.497 30.17c0 11.315 4.495 22.17 12.497 30.17s18.854 12.497 30.17 12.497h256c11.315 0 22.17-4.497 30.17-12.497s12.497-18.854 12.497-30.17c0-11.315-4.497-22.17-12.497-30.17s-18.854-12.497-30.17-12.497z"></path>
</svg>
