<!-- Generated by IcoMoon.io -->
<svg version="1.1" xmlns="http://www.w3.org/2000/svg" width="1024" height="1024" viewBox="0 0 1024 1024">
<title></title>
<g id="icomoon-ignore">
</g>
<path fill="#00a1e0" d="M426.88 231.083c32-33.963 78.72-55.723 129.963-55.723 66.56 0 126.037 38.4 157.397 94.080 26.88-12.8 57.6-19.2 89.643-19.2 121.557 0 220.117 99.84 220.117 222.72s-98.603 222.72-220.843 222.72c-14.72 0-29.397-1.877-43.52-4.437-27.52 49.92-80 83.2-140.8 83.2-25.6 0-49.28-6.4-70.4-16-28.117 65.963-93.397 111.957-169.6 111.957-79.317 0-147.2-49.877-172.8-120.277-11.52 2.603-23.040 3.2-35.2 3.2-94.037 0-170.88-76.8-170.88-172.8 0-64 34.603-119.68 85.76-149.76-10.88-24.32-16.64-51.2-16.64-78.763 0-110.080 89.6-198.357 198.4-198.357 65.28 0 121.6 30.037 158.72 76.8z"></path>
</svg>
